<?xml version="1.0" encoding="UTF-8"?>
<svg id="Layer_2" data-name="Layer 2" xmlns="http://www.w3.org/2000/svg" viewBox="0 0 136.7 118.08">
  <defs>
    <style>
      .cls-1 {
        fill: #fff;
      }
    </style>
  </defs>
  <g id="Layer_2-2" data-name="Layer 2">
    <path class="cls-1" d="m122.12,118.08H14.58c-5.32,0-10.06-2.77-12.68-7.41-2.62-4.64-2.53-10.12.22-14.68L55.89,7.03c2.66-4.4,7.32-7.03,12.46-7.03s9.8,2.63,12.46,7.03l53.77,88.96c2.75,4.56,2.84,10.04.22,14.68-2.62,4.64-7.36,7.41-12.68,7.41ZM68.35,10c-.77,0-2.7.21-3.9,2.2L10.68,101.16c-1.24,2.06-.46,3.9-.07,4.6.39.7,1.57,2.32,3.97,2.32h107.53c2.4,0,3.58-1.62,3.97-2.32.39-.7,1.17-2.54-.07-4.6L72.25,12.2c-1.2-1.99-3.13-2.2-3.9-2.2Z"/>
    <path class="cls-1" d="m62.07,81.95c0-3.7,2.58-6.36,6.29-6.36s6.15,2.65,6.22,6.36c0,3.63-2.44,6.36-6.22,6.36s-6.29-2.72-6.29-6.36Zm2.3-9.85l-1.61-31.64h11.1l-1.54,31.64h-7.96Z"/>
  </g>
</svg>