<?xml version="1.0" encoding="UTF-8"?>
<svg xmlns="http://www.w3.org/2000/svg" viewBox="0 0 180.01 423.67">
  <defs>
    <style>
      .cls-1 {
        isolation: isolate;
      }

      .cls-2 {
        fill: none;
        stroke: #9bc6c6;
        stroke-miterlimit: 10;
      }

      .cls-3 {
        fill: #3666ff;
      }

      .cls-4 {
        mix-blend-mode: color-dodge;
      }

      .cls-5 {
        mix-blend-mode: multiply;
      }
    </style>
  </defs>
  <g class="cls-1">
    <g id="Layer_2" data-name="Layer 2">
      <g id="Layer_1-2" data-name="Layer 1">
        <g>
          <path class="cls-2" d="m88.63,229.68c16.88,46.82.49,62.07,6.88,83.82,20,68-19.69,60.74-2,110"/>
          <path class="cls-3" d="m180.01,113.18c0,76.48-90.01,111.81-90.01,111.81,0,0-90.01-35.34-90.01-111.81S53.85,0,90.01,0s90.01,36.7,90.01,113.18Z"/>
          <g class="cls-5">
            <path class="cls-3" d="m158.16,39.47c27.98,135.75-68.15,185.52-68.15,185.52,0,0,90.01-35.34,90.01-111.81,0-31.06-8.88-55.56-21.86-73.71Z"/>
          </g>
          <g>
            <path class="cls-3" d="m88.63,235.13c4.59-4.59,1.31-12.11,1.31-12.11,0,0-7.52-3.28-12.11,1.31-4.59,4.59-3.56,10.02-1.39,12.19s7.6,3.2,12.19-1.39Z"/>
            <g class="cls-5">
              <path class="cls-3" d="m88.63,235.13c4.59-4.59,1.31-12.11,1.31-12.11,0,0,.57,6.93-4.02,11.52s-11.65-.19-9.48,1.98,7.6,3.2,12.19-1.39Z"/>
            </g>
            <path class="cls-3" d="m91.36,235.13c-4.59-4.59-1.31-12.11-1.31-12.11,0,0,7.52-3.28,12.11,1.31s3.56,10.02,1.39,12.19-7.6,3.2-12.19-1.39Z"/>
            <g class="cls-5">
              <path class="cls-3" d="m91.36,235.13c9.56,2.82,12.96.1,10.8-10.8,4.59,4.59,3.56,10.02,1.39,12.19s-7.6,3.2-12.19-1.39Z"/>
            </g>
          </g>
          <g class="cls-4">
            <path class="cls-3" d="m92.19,49.96c-10.42,13.13-25.36,29.81-40.76,63.41-8.43,18.39-40.51,13.44-33.52-31.7,3.81-24.62,17.37-51.16,40.76-63.41,37.47-19.62,57.94.91,33.52,31.7Z"/>
          </g>
        </g>
      </g>
    </g>
  </g>
</svg>